<svg version="1.2" baseProfile="tiny-ps" xmlns="http://www.w3.org/2000/svg" width="192" height="114"><style/><g id="Group 35"><g id="6 TYPES"><path id="aspen" d="M3.88 88.27c3.37-1.72 8.55-4.71 8.55-4.71V65.67s-3.53-1-4.75-2.83c-1.22-1.83-.29-4.4 4.75-8.48s20.88-20.72 20.88-20.72-.07-4.35 0-8.48c.08-4.13 3.85-7.18 5.7-5.65 1.85 1.52 4.74.94 4.74.94s.67-12.46.95-16.96c.28-4.5 3.51-3.36 7.6-1.88 4.08 1.48 5.2 1.83 7.59 2.82 2.39 1 1.9 6.34 1.9 9.42v8.48s40.9-.97 54.11-3.77c13.21-2.79 16.11-4.8 24.68-2.82 8.58 1.98 10.21 2.63 12.34 9.42 2.13 6.79 13.29 34.85 13.29 34.85v4.71s17.48 11.44 21.84 15.08c4.35 3.63 3.9 9.35 2.84 12.24-1.05 2.9 0 12.25 0 12.25s-27.33 5.12-32.27 4.71c-4.94-.41-9.49 0-9.49 0s2.2 4.37-6.65 4.71c-8.85.34-11.63.05-18.99 0-7.35-.05-14.24-2.83-14.24-2.83s-51.92 1.52-66.45 0c-14.52-1.51-32.39-5.04-37.02-6.59-4.63-1.55-6.17-3.45-5.69-6.6.47-3.14.43-7.69 3.79-9.42z" fill="#d7dde3"/></g></g></svg>