<svg version="1.2" baseProfile="tiny-ps" xmlns="http://www.w3.org/2000/svg" width="192" height="128"><style/><g id="Group 35"><g id="6 TYPES"><path id="heaven" fill-rule="evenodd" d="M29.2 64.25s-1.55-.32-3.45-.75v31.31c1.63.42 3.08.21 3.45-1.88.75-4.28 0-28.68 0-28.68zm-9.18-2.3c-2.66-.98-4.53-.15 1.15-5.74 5.47-5.39 12.62-14.91 12.62-14.91v-3.44h-5.74s5.91-5.04 8.03-6.88c3.28-2.86 6.24-6.41 8.03-6.89 1.8-.48-.27-5.48 1.15-5.73 1.42-.26 8.03 0 8.03 0L54.44 0h3.44v3.44h5.74V0l3.44 1.15V19.5s12.38.75 18.36 1.15c5.97.4 8.56 5.12 12.62 9.18 4.06 4.06 1.2 5.64 14.91 5.73 13.71.1 5.68 0 9.18 0 3.49 0 5.55-7.62 6.88-12.62 1.34-4.99 1.08-8.93 6.89-9.17 5.81-.24 12.62 0 12.62 0V4.59s3-.15 4.59 1.15c1.58 1.3 1.14 9.17 1.14 9.17s.99-.23 3.45 0c2.45.24 3.19 8.25 6.88 11.48 3.69 3.22 4.92 5.23 6.88 6.88 1.97 1.65-.5 2.31-2.29 2.29-1.79-.02-1.47-.3-2.29 1.15-.83 1.46 2.11 5.78 5.73 12.62 3.63 6.84 3.44 29.83 3.44 29.83s1.99.87 8.03 2.29c6.05 1.42 8.04 1.25 8.04 9.18v16.06c0 4.75-5.13 4.93-10.33 4.59-5.2-.33-8.52-.32-10.33 0-1.8.33-1.14 3.19-1.14 8.03 0 4.85 2.32 8.08-11.48 8.03-13.79-.04-14.54 0-26.38 0-11.85 0-16.73-5.57-21.8-10.32-5.08-4.75-6.88-5.74-18.36-5.74H47.55c-14.3 0-25.66-4.51-33.27-6.88-7.61-2.37-13.15-2.33-13.77-5.74-.61-3.4-.42-9.81 3.45-10.32 3.86-.51 5.73 1.14 5.73 1.14s1.95-3.26 5.74-2.29c3.79.97 3.72 5.06 5.74 5.74.31.1.7.28 1.14.49V62.65c-.88-.24-1.69-.48-2.29-.7zm37.86-50.48h5.74V6.88h-5.74v4.59zm0 3.44v3.45h5.74v-3.45h-5.74z" fill="#d7dde3"/></g></g></svg>