<svg version="1.2" baseProfile="tiny-ps" xmlns="http://www.w3.org/2000/svg" width="204" height="114"><style/><g id="Group 35"><g id="6 TYPES"><path id="vei" d="M8.62 104.82c-3.14-5.23-2.78-15.29-2.29-19.5.49-4.21 3.88-3.54 8.03-6.88C18.51 75.09 17.8 66 17.8 55.49s-1.15-29.1-1.15-35.56c0-6.47 11.16-15.73 13.77-18.36 2.61-2.63 4.43-1.63 6.88 2.3 2.46 3.92 5.82 9.26 8.03 12.61 2.22 3.36 2.3 7.55 2.3 11.48 0 3.92 1.63 8.07 5.74 6.88 4.1-1.19 22.94 0 22.94 0v-6.88c0-2.1-.65-2.3 2.3-2.3h5.73c1.52 0 2.3 1.05 2.3 3.44v5.74h5.74c2.26 0 2.82 3.64 5.73 10.33 2.92 6.68 2.47 9.17 6.89 9.17 4.41 0 4.86-2.19 5.73-5.73.87-3.54 1.13-8.13 2.3-10.33 1.17-2.19 3.71-4.58 10.32-4.59h16.07s9.54-8.07 12.62-10.32c3.07-2.25 5.1-1.74 9.17 0 4.08 1.74 9.3 3.54 13.77 5.73 4.48 2.2 4.8 4.79 8.03 11.48 3.23 6.68 3.45 12.16 3.45 21.79 0 9.64 1.14 24.99 1.14 28.69 0 3.69 1.36 3.44 4.59 3.44 3.23 0 4.59-2.05 4.59-6.89V72.7c0-3.89 6.89-6.69 6.89 2.29v30.98c0 7.14-5.33 8.62-18.36 4.59-13.04-4.03-23.78-3.45-33.27-1.15-9.5 2.31-51.35 4.48-73.43 4.59-22.09.11-69.39-8.18-69.99-9.18zM2.31 27.96h22.95a1.72 1.72 0 110 3.44H2.31a1.72 1.72 0 110-3.44zm10.33 6.88h9.17c.96 0 1.73.77 1.73 1.72s-.77 1.72-1.73 1.72h-9.17a1.72 1.72 0 110-3.44z" fill="#d7dde3"/></g></g></svg>