<svg version="1.2" baseProfile="tiny-ps" xmlns="http://www.w3.org/2000/svg" width="198" height="162"><style/><g id="Group 35"><g id="6 TYPES"><path id="tower" d="M20.82 138.48V111.6c0-5.35-2.65-2.36-6.72 1.12-4.08 3.49-9.37 4.87-5.6 0 3.77-4.86 18.55-24.8 21.28-28 2.72-3.19 1.12-10.48 1.12-16.79v-16.8c0-3.64-1.23-4.48-7.84-4.48-6.61 0-10.08 1.75-10.08-3.36 0-5.12 1-5.6 3.36-5.6 2.35 0 2.24.46 2.24 2.24 0 1.78-.16 3.02 6.72 2.24 6.88-.79 39.19-3.36 39.19-3.36v-4.48h4.48v-6.72c0-2.92 5.6-5.11 5.6 0v11.2c0 2.25 1.88 2.52 7.84 5.6 5.96 3.08 14.76 7.44 22.4 10.08 7.64 2.63 5.6-1.95 5.6-5.6V36.57h-4.48c-2.47 0-2.05-.93 3.36-5.6 5.41-4.68 14.55-13.44 14.55-13.44v-6.72c0-1.54 4.36-5.47 6.72-7.84 2.37-2.37 5.6-4.7 5.6 0v14.56c0 3.94.89 4.02 4.48 7.84 3.59 3.81 4.39 5.44 6.72 7.84 2.33 2.39.25 4.63-2.24 4.48-2.49-.16-5.6 0-5.6 0v43.67c0 3.7 4.53 6.52 10.08 10.08 5.55 3.57 8.96 4.09 8.96 7.84 0 3.76-1.74 12.32 2.24 12.32 3.98 0 3.98-4.27 8.96-1.12 4.98 3.16 7.79 6.12 10.08 5.6 2.28-.52 4.09-6.84 6.72-3.36 2.63 3.49 2.14 7.7 5.6 7.84 3.45.14 5.6 1.1 5.6 6.72v25.76c0 5.88 2.86 8.96-11.2 8.96-14.07 0-34.36-1.7-53.76-4.48-19.39-2.78-19.89 3.73-29.11 2.24-9.22-1.48-13.1-3.96-22.4-2.24-9.3 1.72-19.63 5.97-41.43 2.24-21.81-3.73-28.37-7.46-33.6-6.72-5.23.74-5.6-1.34-5.6-5.6s1.84-4.38 5.6-4.48c3.76-.1 9.31 0 12.32 0 3 0 2.24-12.94 2.24-4.48zm1.12-15.68s-7.51-1.45-11.2 2.24c-3.69 3.69-1.86 7.48 1.12 10.08 2.98 2.6-2.24 8.96-2.24 8.96h4.48s4.22-6.73 1.12-10.08c-3.11-3.34-3.31-4.96-1.12-6.72 2.19-1.76 7.84-1.12 7.84-1.12v-3.36z" fill="#d7dde3"/></g></g></svg>